<?xml version="1.0" encoding="UTF-8"?>
<svg
   id="Ebene_2_Kopie"
   data-name="Ebene 2 Kopie"
   viewBox="0 0 51424.632 7216.5022"
   version="1.1"
   width="51424.633"
   height="7216.502"
   xmlns="http://www.w3.org/2000/svg"
   xmlns:svg="http://www.w3.org/2000/svg">
  <defs
     id="defs4">
    <style
       id="style2">.cls-1{fill:#445ef2;}</style>
  </defs>
  <polygon
     class="cls-1"
     points="38.27,33.07 32.64,33.07 30.76,34.04 30.76,37.85 28.37,40.25 28.37,49.02 30.73,46.66 30.73,44.99 32.64,44.03 38.27,44.03 40.18,44.99 40.18,34.04 "
     id="polygon6" />
  <polygon
     class="cls-1"
     points="38.27,45.7 32.64,45.7 30.73,46.66 30.73,48.33 28.35,50.71 28.35,56.69 40.18,56.69 40.18,46.66 "
     id="polygon8" />
  <polygon
     class="cls-1"
     points="41.84,45.8 49.04,44.52 49.04,42.85 51.33,41.7 58.09,41.7 60.38,42.85 60.38,29.5 58.09,28.35 51.33,28.35 49.04,29.5 49.04,35.43 41.84,36.7 "
     id="polygon10" />
  <polygon
     class="cls-1"
     points="58.09,43.36 51.33,43.36 49.04,44.52 49.04,46.19 41.84,47.46 41.84,56.69 60.38,56.69 60.38,44.52 "
     id="polygon12" />
  <polygon
     class="cls-1"
     points="62.05,43.88 69.24,43.88 71.15,42.82 76.78,42.82 78.69,43.88 78.69,31.77 76.78,30.71 71.15,30.71 69.24,31.77 69.24,35.43 62.05,35.43 "
     id="polygon14" />
  <polygon
     class="cls-1"
     points="78.69,56.69 78.69,45.55 76.78,44.48 71.15,44.48 69.24,45.55 62.05,45.55 62.05,56.69 "
     id="polygon16" />
  <polygon
     class="cls-1"
     points="86.94,36.9 85.28,36.05 80.36,36.05 80.36,45.6 85.28,45.6 86.94,46.45 "
     id="polygon18" />
  <polygon
     class="cls-1"
     points="85.28,47.27 80.36,47.27 80.36,56.69 86.94,56.69 86.94,48.11 "
     id="polygon20" />
  <polygon
     class="cls-1"
     points="104.7,37.88 101.94,37.88 101.94,56.62 104.7,56.62 104.7,50.36 107.67,47.5 114.59,56.62 117.78,56.62 117.78,56.25 109.7,45.6 117.38,38.25 117.38,37.88 113.79,37.88 104.7,47.17 "
     id="polygon22" />
  <path
     class="cls-1"
     d="m 125.48,37.88 -6.29,18.74 h 2.92 l 1.8,-5.59 h 7.79 l 1.8,5.59 h 3 L 130,37.88 Z m -0.84,10.95 3.17,-9.78 3.19,9.78 z"
     id="path24" />
  <path
     class="cls-1"
     d="m 150.61,47.75 a 10.42,10.42 0 0 0 -2.39,-1 c -0.88,-0.25 -1.76,-0.47 -2.63,-0.67 -0.87,-0.2 -1.68,-0.42 -2.42,-0.66 a 4.73,4.73 0 0 1 -1.76,-1 2.15,2.15 0 0 1 -0.63,-1.7 2.12,2.12 0 0 1 1.21,-1.9 6.26,6.26 0 0 1 3.12,-0.7 8.44,8.44 0 0 1 1.49,0.15 5.73,5.73 0 0 1 1.6,0.55 3.48,3.48 0 0 1 1.26,1.18 3.17,3.17 0 0 1 0.5,1.88 h 2.7 a 5.86,5.86 0 0 0 -1,-3.5 6,6 0 0 0 -2.66,-2.13 9.13,9.13 0 0 0 -3.6,-0.7 10,10 0 0 0 -5.37,1.3 4.26,4.26 0 0 0 -2.18,3.59 4.38,4.38 0 0 0 0.51,2.61 4.8,4.8 0 0 0 1.7,1.65 11.09,11.09 0 0 0 2.38,1 c 0.87,0.25 1.74,0.48 2.62,0.69 0.88,0.21 1.68,0.45 2.41,0.7 a 4.85,4.85 0 0 1 1.75,1 2.22,2.22 0 0 1 0.64,1.66 2.56,2.56 0 0 1 -0.41,1.13 3.06,3.06 0 0 1 -1.33,1.1 6,6 0 0 1 -2.58,0.47 7.63,7.63 0 0 1 -3.16,-0.53 4.12,4.12 0 0 1 -1.65,-1.25 3.25,3.25 0 0 1 -0.63,-1.33 6.06,6.06 0 0 1 -0.12,-0.75 h -2.8 a 5.73,5.73 0 0 0 1.22,3.68 6.79,6.79 0 0 0 3,2.06 11.87,11.87 0 0 0 3.9,0.65 11.65,11.65 0 0 0 3.79,-0.58 6.24,6.24 0 0 0 2.65,-1.7 4.43,4.43 0 0 0 1.08,-2.68 4.8,4.8 0 0 0 -0.55,-2.65 4.52,4.52 0 0 0 -1.66,-1.62 z"
     id="path26" />
  <polygon
     class="cls-1"
     points="162.46,40.28 168.22,40.28 168.22,37.88 153.91,37.88 153.91,40.28 159.7,40.28 159.7,56.62 162.46,56.62 "
     id="polygon28" />
  <polygon
     class="cls-1"
     points="172.86,40.28 183.11,40.28 183.11,37.88 170.13,37.88 170.13,56.62 183.45,56.62 183.45,54.35 172.86,54.35 172.86,48.26 180.85,48.26 180.85,45.97 172.86,45.97 "
     id="polygon30" />
  <polygon
     class="cls-1"
     points="198.43,56.62 198.43,54.22 188.61,54.22 188.61,37.88 185.84,37.88 185.84,56.62 "
     id="polygon32" />
</svg>
